<svg aria-hidden="true" style="position: absolute; width: 0; height: 0; overflow: hidden;" version="1.1" xmlns="http://www.w3.org/2000/svg" xmlns:xlink="http://www.w3.org/1999/xlink">
<defs>
<symbol id="va-icon-times-circle" viewBox="0 0 14 16">
<title>times-circle</title>
<path d="M10.259 10.018c0-0.152-0.063-0.295-0.17-0.402l-1.616-1.616 1.616-1.616c0.107-0.107 0.17-0.25 0.17-0.402s-0.063-0.304-0.17-0.411l-0.804-0.804c-0.107-0.107-0.259-0.17-0.411-0.17s-0.295 0.063-0.402 0.17l-1.616 1.616-1.616-1.616c-0.107-0.107-0.25-0.17-0.402-0.17s-0.304 0.063-0.411 0.17l-0.804 0.804c-0.107 0.107-0.17 0.259-0.17 0.411s0.063 0.295 0.17 0.402l1.616 1.616-1.616 1.616c-0.107 0.107-0.17 0.25-0.17 0.402s0.063 0.304 0.17 0.411l0.804 0.804c0.107 0.107 0.259 0.17 0.411 0.17s0.295-0.063 0.402-0.17l1.616-1.616 1.616 1.616c0.107 0.107 0.25 0.17 0.402 0.17s0.304-0.063 0.411-0.17l0.804-0.804c0.107-0.107 0.17-0.259 0.17-0.411zM13.714 8c0 3.786-3.071 6.857-6.857 6.857s-6.857-3.071-6.857-6.857 3.071-6.857 6.857-6.857 6.857 3.071 6.857 6.857z"></path>
</symbol>
<symbol id="va-icon-check-circle" viewBox="0 0 14 16">
<title>check-circle</title>
<path d="M11.464 6.554c0-0.152-0.054-0.304-0.161-0.411l-0.813-0.804c-0.107-0.107-0.25-0.17-0.402-0.17s-0.295 0.063-0.402 0.17l-3.643 3.634-2.018-2.018c-0.107-0.107-0.25-0.17-0.402-0.17s-0.295 0.063-0.402 0.17l-0.813 0.804c-0.107 0.107-0.161 0.259-0.161 0.411s0.054 0.295 0.161 0.402l3.232 3.232c0.107 0.107 0.259 0.17 0.402 0.17 0.152 0 0.304-0.063 0.411-0.17l4.848-4.848c0.107-0.107 0.161-0.25 0.161-0.402zM13.714 8c0 3.786-3.071 6.857-6.857 6.857s-6.857-3.071-6.857-6.857 3.071-6.857 6.857-6.857 6.857 3.071 6.857 6.857z"></path>
</symbol>
<symbol id="va-icon-close" viewBox="0 0 13 16">
<title>close</title>
<path d="M11.589 11.804c0 0.223-0.089 0.446-0.25 0.607l-1.214 1.214c-0.161 0.161-0.384 0.25-0.607 0.25s-0.446-0.089-0.607-0.25l-2.625-2.625-2.625 2.625c-0.161 0.161-0.384 0.25-0.607 0.25s-0.446-0.089-0.607-0.25l-1.214-1.214c-0.161-0.161-0.25-0.384-0.25-0.607s0.089-0.446 0.25-0.607l2.625-2.625-2.625-2.625c-0.161-0.161-0.25-0.384-0.25-0.607s0.089-0.446 0.25-0.607l1.214-1.214c0.161-0.161 0.384-0.25 0.607-0.25s0.446 0.089 0.607 0.25l2.625 2.625 2.625-2.625c0.161-0.161 0.384-0.25 0.607-0.25s0.446 0.089 0.607 0.25l1.214 1.214c0.161 0.161 0.25 0.384 0.25 0.607s-0.089 0.446-0.25 0.607l-2.625 2.625 2.625 2.625c0.161 0.161 0.25 0.384 0.25 0.607z"></path>
</symbol>
<symbol id="va-icon-chevron-circle-down" viewBox="0 0 14 16">
<title>chevron-circle-down</title>
<path d="M7.259 11.598l4.054-4.054c0.223-0.223 0.223-0.58 0-0.804l-0.911-0.911c-0.223-0.223-0.58-0.223-0.804 0l-2.741 2.741-2.741-2.741c-0.223-0.223-0.58-0.223-0.804 0l-0.911 0.911c-0.223 0.223-0.223 0.58 0 0.804l4.054 4.054c0.223 0.223 0.58 0.223 0.804 0zM13.714 8c0 3.786-3.071 6.857-6.857 6.857s-6.857-3.071-6.857-6.857 3.071-6.857 6.857-6.857 6.857 3.071 6.857 6.857z"></path>
</symbol>
<symbol id="va-icon-chevron-circle-up" viewBox="0 0 14 16">
<title>chevron-circle-up</title>
<path d="M10.402 10.17l0.911-0.911c0.223-0.223 0.223-0.58 0-0.804l-4.054-4.054c-0.223-0.223-0.58-0.223-0.804 0l-4.054 4.054c-0.223 0.223-0.223 0.58 0 0.804l0.911 0.911c0.223 0.223 0.58 0.223 0.804 0l2.741-2.741 2.741 2.741c0.223 0.223 0.58 0.223 0.804 0zM13.714 8c0 3.786-3.071 6.857-6.857 6.857s-6.857-3.071-6.857-6.857 3.071-6.857 6.857-6.857 6.857 3.071 6.857 6.857z"></path>
</symbol>
<symbol id="va-icon-chevron-circle-right" viewBox="0 0 14 16">
<title>chevron-circle-right</title>
<path d="M6.402 12.455l4.054-4.054c0.223-0.223 0.223-0.58 0-0.804l-4.054-4.054c-0.223-0.223-0.58-0.223-0.804 0l-0.911 0.911c-0.223 0.223-0.223 0.58 0 0.804l2.741 2.741-2.741 2.741c-0.223 0.223-0.223 0.58 0 0.804l0.911 0.911c0.223 0.223 0.58 0.223 0.804 0zM13.714 8c0 3.786-3.071 6.857-6.857 6.857s-6.857-3.071-6.857-6.857 3.071-6.857 6.857-6.857 6.857 3.071 6.857 6.857z"></path>
</symbol>
<symbol id="va-icon-chevron-circle-left" viewBox="0 0 14 16">
<title>chevron-circle-left</title>
<path d="M8.116 12.455l0.911-0.911c0.223-0.223 0.223-0.58 0-0.804l-2.741-2.741 2.741-2.741c0.223-0.223 0.223-0.58 0-0.804l-0.911-0.911c-0.223-0.223-0.58-0.223-0.804 0l-4.054 4.054c-0.223 0.223-0.223 0.58 0 0.804l4.054 4.054c0.223 0.223 0.58 0.223 0.804 0zM13.714 8c0 3.786-3.071 6.857-6.857 6.857s-6.857-3.071-6.857-6.857 3.071-6.857 6.857-6.857 6.857 3.071 6.857 6.857z"></path>
</symbol>
<symbol id="va-icon-chevron-right" viewBox="0 0 11 16">
<title>chevron-right</title>
<path d="M9.884 7.83l-6.625 6.625c-0.223 0.223-0.58 0.223-0.804 0l-1.482-1.482c-0.223-0.223-0.223-0.58 0-0.804l4.741-4.741-4.741-4.741c-0.223-0.223-0.223-0.58 0-0.804l1.482-1.482c0.223-0.223 0.58-0.223 0.804 0l6.625 6.625c0.223 0.223 0.223 0.58 0 0.804z"></path>
</symbol>
<symbol id="va-icon-chevron-left" viewBox="0 0 12 16">
<title>chevron-left</title>
<path d="M10.455 2.688l-4.741 4.741 4.741 4.741c0.223 0.223 0.223 0.58 0 0.804l-1.482 1.482c-0.223 0.223-0.58 0.223-0.804 0l-6.625-6.625c-0.223-0.223-0.223-0.58 0-0.804l6.625-6.625c0.223-0.223 0.58-0.223 0.804 0l1.482 1.482c0.223 0.223 0.223 0.58 0 0.804z"></path>
</symbol>
<symbol id="va-icon-chevron-down" viewBox="0 0 16 16">
<title>chevron-down</title>
<path d="M15.027 7.214l-6.625 6.616c-0.223 0.223-0.58 0.223-0.804 0l-6.625-6.616c-0.223-0.223-0.223-0.589 0-0.813l1.482-1.473c0.223-0.223 0.58-0.223 0.804 0l4.741 4.741 4.741-4.741c0.223-0.223 0.58-0.223 0.804 0l1.482 1.473c0.223 0.223 0.223 0.589 0 0.813z"></path>
</symbol>
<symbol id="va-icon-chevron-up" viewBox="0 0 16 16">
<title>chevron-up</title>
<path d="M15.027 11.884l-1.482 1.473c-0.223 0.223-0.58 0.223-0.804 0l-4.741-4.741-4.741 4.741c-0.223 0.223-0.58 0.223-0.804 0l-1.482-1.473c-0.223-0.223-0.223-0.589 0-0.813l6.625-6.616c0.223-0.223 0.58-0.223 0.804 0l6.625 6.616c0.223 0.223 0.223 0.589 0 0.813z"></path>
</symbol>
<symbol id="va-icon-twitter1" viewBox="0 0 15 16">
<title>twitter1</title>
<path d="M14.464 3.643c-0.393 0.571-0.884 1.080-1.446 1.491 0.009 0.125 0.009 0.25 0.009 0.375 0 3.813-2.902 8.205-8.205 8.205-1.634 0-3.152-0.473-4.429-1.295 0.232 0.027 0.455 0.036 0.696 0.036 1.348 0 2.589-0.455 3.58-1.232-1.268-0.027-2.33-0.857-2.696-2 0.179 0.027 0.357 0.045 0.545 0.045 0.259 0 0.518-0.036 0.759-0.098-1.321-0.268-2.313-1.429-2.313-2.83v-0.036c0.384 0.214 0.83 0.348 1.304 0.366-0.777-0.518-1.286-1.402-1.286-2.402 0-0.536 0.143-1.027 0.393-1.455 1.42 1.75 3.554 2.893 5.946 3.018-0.045-0.214-0.071-0.438-0.071-0.661 0-1.589 1.286-2.884 2.884-2.884 0.83 0 1.58 0.348 2.107 0.911 0.652-0.125 1.277-0.366 1.83-0.696-0.214 0.67-0.67 1.232-1.268 1.589 0.58-0.063 1.143-0.223 1.661-0.446z"></path>
</symbol>
<symbol id="va-icon-envelope-o" viewBox="0 0 16 16">
<title>envelope-o</title>
<path d="M14.857 13.429v-6.857c-0.188 0.214-0.393 0.411-0.616 0.589-1.277 0.982-2.563 1.982-3.804 3.018-0.67 0.563-1.5 1.25-2.429 1.25h-0.018c-0.929 0-1.759-0.688-2.429-1.25-1.241-1.036-2.527-2.036-3.804-3.018-0.223-0.179-0.429-0.375-0.616-0.589v6.857c0 0.152 0.134 0.286 0.286 0.286h13.143c0.152 0 0.286-0.134 0.286-0.286zM14.857 4.045c0-0.223 0.054-0.616-0.286-0.616h-13.143c-0.152 0-0.286 0.134-0.286 0.286 0 1.018 0.509 1.902 1.313 2.536 1.196 0.938 2.393 1.884 3.58 2.83 0.473 0.384 1.33 1.205 1.955 1.205h0.018c0.625 0 1.482-0.821 1.955-1.205 1.188-0.946 2.384-1.893 3.58-2.83 0.58-0.455 1.313-1.446 1.313-2.205zM16 3.714v9.714c0 0.786-0.643 1.429-1.429 1.429h-13.143c-0.786 0-1.429-0.643-1.429-1.429v-9.714c0-0.786 0.643-1.429 1.429-1.429h13.143c0.786 0 1.429 0.643 1.429 1.429z"></path>
</symbol>
<symbol id="va-icon-envelope" viewBox="0 0 16 16">
<title>envelope</title>
<path d="M16 6.339v7.089c0 0.786-0.643 1.429-1.429 1.429h-13.143c-0.786 0-1.429-0.643-1.429-1.429v-7.089c0.268 0.295 0.571 0.554 0.902 0.777 1.482 1.009 2.982 2.018 4.438 3.080 0.75 0.554 1.679 1.232 2.652 1.232h0.018c0.973 0 1.902-0.679 2.652-1.232 1.455-1.054 2.955-2.071 4.446-3.080 0.321-0.223 0.625-0.482 0.893-0.777zM16 3.714c0 1-0.741 1.902-1.527 2.446-1.393 0.964-2.795 1.929-4.179 2.902-0.58 0.402-1.563 1.223-2.286 1.223h-0.018c-0.723 0-1.705-0.821-2.286-1.223-1.384-0.973-2.786-1.938-4.17-2.902-0.634-0.429-1.536-1.438-1.536-2.25 0-0.875 0.473-1.625 1.429-1.625h13.143c0.777 0 1.429 0.643 1.429 1.429z"></path>
</symbol>
<symbol id="va-icon-phone11" viewBox="0 0 13 16">
<title>phone11</title>
<path d="M12.571 11.071c0 0.321-0.143 0.946-0.277 1.241-0.188 0.438-0.688 0.723-1.089 0.946-0.527 0.286-1.063 0.455-1.661 0.455-0.83 0-1.58-0.339-2.339-0.616-0.545-0.196-1.071-0.438-1.563-0.741-1.518-0.938-3.348-2.768-4.286-4.286-0.304-0.491-0.545-1.018-0.741-1.563-0.277-0.759-0.616-1.509-0.616-2.339 0-0.598 0.17-1.134 0.455-1.661 0.223-0.402 0.509-0.902 0.946-1.089 0.295-0.134 0.92-0.277 1.241-0.277 0.063 0 0.125 0 0.188 0.027 0.188 0.063 0.384 0.5 0.473 0.679 0.286 0.509 0.563 1.027 0.857 1.527 0.143 0.232 0.411 0.518 0.411 0.795 0 0.545-1.616 1.339-1.616 1.821 0 0.241 0.223 0.554 0.348 0.768 0.902 1.625 2.027 2.75 3.652 3.652 0.214 0.125 0.527 0.348 0.768 0.348 0.482 0 1.277-1.616 1.821-1.616 0.277 0 0.563 0.268 0.795 0.411 0.5 0.295 1.018 0.571 1.527 0.857 0.179 0.089 0.616 0.286 0.679 0.473 0.027 0.063 0.027 0.125 0.027 0.188z"></path>
</symbol>
<symbol id="va-icon-leaf2" viewBox="0 0 16 16">
<title>leaf2</title>
<path d="M11.429 6.286c0-0.313-0.259-0.571-0.571-0.571-3.161 0-5.196 1.321-7.259 3.598-0.107 0.116-0.17 0.241-0.17 0.402 0 0.313 0.259 0.571 0.571 0.571 0.161 0 0.286-0.063 0.402-0.17 0.438-0.393 0.83-0.821 1.259-1.223 1.616-1.455 3-2.036 5.196-2.036 0.313 0 0.571-0.259 0.571-0.571zM16 4.518c0 0.571-0.063 1.152-0.179 1.723-0.571 2.777-2.357 4.58-4.839 5.813-1.205 0.607-2.554 0.964-3.911 0.964-0.857 0-1.741-0.143-2.554-0.42-0.429-0.143-1.286-0.705-1.643-0.705-0.446 0-0.982 1.821-1.759 1.821-0.563 0-0.732-0.277-0.973-0.688-0.080-0.152-0.143-0.205-0.143-0.393 0-0.929 1.768-1.652 1.768-2.17 0-0.080-0.232-0.554-0.268-0.732-0.054-0.304-0.080-0.616-0.080-0.929 0-2.839 2.259-4.866 4.795-5.705 1.83-0.607 5.723 0.098 6.964-1.080 0.491-0.455 0.732-0.875 1.482-0.875 1.009 0 1.339 2.616 1.339 3.375z"></path>
</symbol>
<symbol id="va-icon-eur" viewBox="0 0 9 16">
<title>eur</title>
<path d="M8.714 11.67l0.313 1.42c0.036 0.143-0.045 0.286-0.179 0.33-0.036 0.009-0.866 0.295-1.938 0.295-2.786 0-5.027-1.679-5.777-4.304h-0.848c-0.161 0-0.286-0.134-0.286-0.286v-1.009c0-0.152 0.125-0.286 0.286-0.286h0.589c-0.009-0.286-0.009-0.625 0.009-0.938h-0.598c-0.161 0-0.286-0.125-0.286-0.286v-1.018c0-0.161 0.125-0.286 0.286-0.286h0.875c0.795-2.5 3.080-4.161 5.75-4.161 0.929 0 1.696 0.196 1.732 0.205 0.071 0.018 0.134 0.071 0.179 0.134 0.036 0.063 0.045 0.143 0.027 0.214l-0.384 1.42c-0.036 0.152-0.188 0.241-0.339 0.196-0.009 0-0.616-0.152-1.25-0.152-1.5 0-2.759 0.813-3.357 2.143h4.179c0.089 0 0.17 0.036 0.223 0.107 0.054 0.063 0.080 0.152 0.063 0.232l-0.214 1.018c-0.027 0.134-0.143 0.232-0.286 0.232h-4.357c-0.027 0.286-0.018 0.589 0 0.938h4.098c0.089 0 0.17 0.045 0.223 0.107 0.054 0.071 0.071 0.161 0.054 0.241l-0.214 1c-0.027 0.134-0.143 0.232-0.277 0.232h-3.455c0.571 1.393 1.857 2.268 3.375 2.268 0.777 0 1.411-0.214 1.42-0.214 0.071-0.027 0.161-0.018 0.232 0.018 0.071 0.045 0.116 0.116 0.134 0.188z"></path>
</symbol>
<symbol id="va-icon-clock-o" viewBox="0 0 14 16">
<title>clock-o</title>
<path d="M8 4.857v4c0 0.161-0.125 0.286-0.286 0.286h-2.857c-0.161 0-0.286-0.125-0.286-0.286v-0.571c0-0.161 0.125-0.286 0.286-0.286h2v-3.143c0-0.161 0.125-0.286 0.286-0.286h0.571c0.161 0 0.286 0.125 0.286 0.286zM11.714 8c0-2.679-2.179-4.857-4.857-4.857s-4.857 2.179-4.857 4.857 2.179 4.857 4.857 4.857 4.857-2.179 4.857-4.857zM13.714 8c0 3.786-3.071 6.857-6.857 6.857s-6.857-3.071-6.857-6.857 3.071-6.857 6.857-6.857 6.857 3.071 6.857 6.857z"></path>
</symbol>
<symbol id="va-icon-camera" viewBox="0 0 17 16">
<title>camera</title>
<path d="M8.571 6c1.42 0 2.571 1.152 2.571 2.571s-1.152 2.571-2.571 2.571-2.571-1.152-2.571-2.571 1.152-2.571 2.571-2.571zM14.857 2.286c1.259 0 2.286 1.027 2.286 2.286v8c0 1.259-1.027 2.286-2.286 2.286h-12.571c-1.259 0-2.286-1.027-2.286-2.286v-8c0-1.259 1.027-2.286 2.286-2.286h2l0.455-1.214c0.223-0.589 0.92-1.071 1.545-1.071h4.571c0.625 0 1.321 0.482 1.545 1.071l0.455 1.214h2zM8.571 12.571c2.205 0 4-1.795 4-4s-1.795-4-4-4-4 1.795-4 4 1.795 4 4 4z"></path>
</symbol>
</defs>
</svg>
