<?xml version="1.0" standalone="no"?>
<!DOCTYPE svg PUBLIC "-//W3C//DTD SVG 20010904//EN"
 "http://www.w3.org/TR/2001/REC-SVG-20010904/DTD/svg10.dtd">
<svg version="1.0" xmlns="http://www.w3.org/2000/svg"
 width="512.000000pt" height="512.000000pt" viewBox="0 0 512.000000 512.000000"
 preserveAspectRatio="xMidYMid meet">
<metadata>
Created by potrace 1.11, written by Peter Selinger 2001-2013
</metadata>
<g transform="translate(0.000000,512.000000) scale(0.100000,-0.100000)"
fill="#000000" stroke="none">
<path d="M2083 4134 c-21 -9 -15 -42 10 -58 12 -8 41 -19 65 -24 24 -6 58 -24
80 -44 20 -18 66 -51 102 -72 137 -82 160 -123 160 -285 0 -79 -4 -112 -15
-127 -8 -10 -15 -34 -15 -52 0 -18 -6 -45 -14 -60 -7 -15 -19 -54 -26 -87 -7
-33 -25 -82 -40 -110 -15 -27 -32 -72 -39 -100 -7 -27 -19 -68 -26 -90 -7 -22
-18 -65 -25 -95 -18 -79 -69 -234 -129 -395 -29 -77 -64 -171 -79 -210 -14
-38 -33 -81 -44 -94 -10 -13 -18 -32 -18 -43 0 -11 -11 -23 -26 -28 -42 -17
-54 -12 -54 19 0 16 -6 34 -14 41 -8 6 -12 18 -9 26 3 8 -6 23 -21 35 -38 30
-61 81 -82 179 -11 55 -26 95 -42 114 -16 20 -22 38 -19 55 4 17 -3 35 -19 54
-23 27 -24 31 -10 52 15 22 14 24 -14 34 -26 9 -29 13 -24 39 5 24 2 30 -16
35 -17 4 -21 11 -17 26 3 12 -1 24 -8 29 -8 4 -13 16 -12 27 1 14 -5 21 -20
23 -25 4 -32 39 -12 59 9 9 5 18 -16 35 -27 23 -84 166 -85 213 0 11 -12 38
-25 60 -18 29 -25 54 -25 92 0 41 -5 58 -27 84 -29 34 -53 90 -53 125 0 11 -5
25 -10 30 -10 10 -34 86 -50 163 -8 37 -7 49 10 76 11 18 20 40 20 49 0 9 8
19 18 23 9 3 24 14 32 24 8 10 37 23 63 28 26 5 56 16 66 25 15 13 34 16 102
13 46 -3 91 -7 100 -11 9 -4 25 1 39 12 20 16 21 21 11 41 -12 22 -15 22 -179
18 -92 -2 -212 -9 -267 -15 -179 -21 -636 -4 -978 35 -68 7 -99 -2 -95 -30 3
-20 11 -23 73 -28 39 -3 83 -11 98 -18 16 -6 57 -11 92 -11 l63 0 46 -51 c25
-28 55 -70 65 -94 10 -23 24 -46 30 -49 6 -4 11 -23 11 -43 0 -20 6 -44 14
-52 15 -19 46 -106 46 -133 0 -10 -7 -21 -15 -24 -25 -10 -17 -34 14 -45 30
-11 36 -25 47 -115 4 -29 1 -44 -10 -53 -22 -19 -20 -34 10 -62 33 -31 55 -74
48 -93 -3 -8 5 -28 17 -45 l23 -31 -23 -31 c-25 -33 -20 -45 19 -51 18 -2 26
-10 28 -28 2 -15 15 -34 31 -45 18 -11 34 -35 41 -59 6 -22 18 -49 25 -60 24
-38 59 -186 46 -199 -20 -20 -12 -51 19 -69 21 -12 30 -25 30 -42 0 -14 5 -28
11 -31 11 -8 59 -107 59 -124 0 -6 9 -28 20 -48 26 -49 25 -61 -5 -105 -36
-53 -33 -65 17 -64 l43 1 22 -65 c12 -36 22 -76 22 -89 1 -31 56 -149 84 -179
13 -14 21 -37 22 -60 0 -20 8 -50 16 -67 9 -16 19 -59 22 -95 8 -78 71 -221
142 -318 17 -23 42 -60 57 -82 22 -32 34 -40 58 -40 24 0 33 7 50 40 11 21 20
48 20 58 0 20 34 130 56 179 8 17 14 37 14 45 0 8 21 57 46 108 25 52 51 117
58 145 8 27 23 66 34 85 11 19 23 51 27 70 4 19 16 49 26 66 10 17 19 40 19
50 0 9 9 43 19 73 11 31 27 92 36 136 21 104 44 174 65 205 10 14 20 46 24 71
4 26 13 55 21 65 8 11 15 29 15 41 0 12 5 25 10 28 6 3 10 21 10 38 0 18 6 43
13 58 23 42 47 121 47 150 0 16 12 59 26 96 14 37 29 82 34 98 5 17 15 50 24
75 8 25 29 92 46 150 17 58 38 117 46 132 8 14 14 33 14 42 0 8 6 19 13 23 8
4 26 41 42 82 23 62 39 85 100 145 71 70 137 126 149 126 3 0 37 22 74 48 62
45 93 62 195 107 50 22 46 47 -8 57 -22 3 -110 2 -195 -3 -284 -17 -637 3
-795 45 -11 2 -26 3 -32 0z m-1310 -93 c29 -26 37 -29 70 -21 30 6 39 5 46 -8
10 -17 15 -16 83 19 26 13 44 11 58 -6 7 -8 21 -15 31 -15 11 0 28 -5 39 -12
16 -11 23 -9 47 13 43 40 133 33 133 -10 0 -11 -12 -24 -30 -31 -16 -7 -35
-18 -41 -26 -9 -12 -5 -14 25 -14 42 0 49 -20 15 -44 -26 -18 -20 -61 10 -71
18 -5 32 -48 23 -74 -6 -18 -78 -61 -102 -61 -17 0 -20 -4 -15 -21 5 -13 2
-25 -6 -30 -20 -12 -6 -19 22 -11 13 4 24 14 24 22 0 9 18 21 44 29 41 13 45
12 58 -5 18 -25 -5 -48 -49 -48 -26 -1 -32 -5 -30 -19 4 -21 -42 -41 -66 -28
-49 25 -68 21 -110 -19 -23 -22 -48 -40 -56 -40 -9 0 -23 -11 -32 -25 -11 -17
-25 -25 -45 -25 -63 0 -20 79 51 95 35 8 65 44 50 59 -6 6 -18 3 -32 -10 -61
-54 -118 -71 -118 -35 0 17 126 121 148 121 21 0 92 61 92 80 0 28 -19 25 -30
-4 -5 -13 -20 -26 -36 -30 -27 -7 -97 -52 -141 -90 -22 -18 -24 -19 -42 -2
-11 10 -17 24 -14 32 3 8 -6 25 -21 39 -22 21 -26 31 -21 58 5 24 2 37 -9 46
-9 8 -16 26 -16 41 0 18 -11 39 -30 58 -16 17 -30 37 -30 46 0 9 -17 31 -37
51 -32 29 -35 36 -23 45 30 19 78 11 113 -19z m1659 1 c18 -18 0 -29 -59 -36
-54 -7 -83 7 -83 41 0 13 11 15 65 11 36 -2 70 -9 77 -16z m388 -17 c0 -8 -7
-15 -15 -15 -16 0 -20 12 -8 23 11 12 23 8 23 -8z m-220 -45 c12 -9 5 -19 -40
-59 -40 -36 -58 -47 -67 -39 -26 21 -13 48 35 78 53 34 52 33 72 20z m106 -81
c4 -7 -20 -37 -61 -75 -39 -36 -65 -68 -62 -76 3 -7 8 -20 11 -28 8 -19 -29
-80 -48 -80 -11 0 -15 19 -18 81 -2 44 0 86 4 93 4 8 22 19 40 27 18 7 48 25
66 41 35 30 56 35 68 17z m-1561 -360 c13 -20 -102 -86 -130 -75 -23 8 -14 30
14 34 12 2 26 14 31 28 8 19 17 24 44 24 19 0 38 -5 41 -11z m205 -14 c0 -15
-7 -29 -17 -33 -19 -7 -105 -63 -113 -73 -11 -12 -38 -17 -51 -8 -11 8 -3 19
36 55 93 86 145 106 145 59z m-233 -90 c3 -9 -2 -24 -11 -34 -9 -10 -16 -22
-16 -28 0 -6 -7 -13 -15 -17 -8 -3 -15 -14 -15 -25 0 -14 -17 -30 -52 -51 -29
-16 -56 -30 -60 -30 -7 0 -38 58 -38 73 0 19 156 127 183 127 10 0 20 -7 24
-15z m262 -12 c43 -24 40 -70 -4 -92 -16 -8 -38 -18 -47 -23 -10 -4 -25 -8
-33 -8 -8 0 -15 -4 -15 -10 0 -5 7 -10 15 -10 8 0 15 -5 15 -12 0 -18 -50 -58
-72 -58 -11 0 -41 -18 -67 -40 -26 -22 -53 -40 -60 -40 -6 0 -24 -11 -39 -25
-42 -39 -94 -26 -58 14 22 24 21 27 -14 41 -46 19 -49 48 -9 82 44 36 115 71
129 63 5 -3 10 -15 10 -26 0 -16 3 -18 20 -9 39 21 70 57 64 74 -4 11 0 16 14
16 11 0 22 -6 25 -12 2 -7 8 -9 13 -5 5 4 2 12 -6 17 -17 11 -5 38 21 50 8 4
23 12 34 18 27 15 29 15 64 -5z m61 -127 c0 -18 -41 -45 -80 -53 -42 -8 -40
19 3 45 38 24 77 28 77 8z m-17 -75 c-4 -16 0 -19 28 -18 25 2 34 -3 37 -16 5
-26 -16 -47 -47 -47 -14 0 -33 -5 -41 -10 -12 -8 -11 -10 7 -10 39 0 35 -20
-14 -65 -26 -24 -43 -44 -38 -45 6 0 21 10 35 23 79 71 120 85 140 46 14 -25
6 -49 -15 -49 -22 0 -95 -38 -95 -50 0 -11 57 7 66 21 9 15 54 10 54 -6 0 -13
-29 -38 -154 -132 -27 -20 -43 -39 -37 -41 7 -2 25 7 39 21 37 34 141 89 158
83 18 -7 18 -26 0 -26 -8 0 -18 -5 -22 -11 -5 -9 3 -10 30 -5 25 5 36 3 36 -5
0 -7 7 -20 16 -30 18 -20 11 -39 -13 -39 -12 0 -14 -7 -9 -34 6 -31 4 -34 -13
-29 -16 4 -19 1 -14 -16 4 -14 0 -23 -13 -28 -11 -4 -46 -23 -79 -43 -33 -20
-72 -40 -87 -44 -16 -3 -28 -11 -28 -16 0 -12 -40 -52 -67 -67 -39 -22 -45
-17 -37 32 l6 45 -30 -6 c-18 -4 -32 -1 -37 6 -12 20 4 59 33 74 27 15 27 16
5 22 -13 3 -23 10 -23 15 0 5 -13 9 -30 9 -25 0 -30 4 -30 24 0 41 10 55 56
78 24 12 44 24 44 28 0 4 -11 13 -25 20 -20 10 -28 11 -37 2 -7 -7 -26 -12
-44 -12 -30 0 -35 5 -63 63 -37 76 -38 87 -8 114 36 33 176 117 252 152 39 17
77 35 85 40 20 12 29 5 23 -18z m265 -553 c2 -12 -5 -19 -23 -24 -33 -8 -40
-1 -25 26 13 24 43 23 48 -2z m-163 -47 c3 -5 -1 -15 -9 -23 -36 -35 -67 -58
-78 -58 -7 0 -33 -19 -58 -43 -47 -45 -86 -67 -107 -60 -24 8 -13 33 25 58 20
14 71 50 112 79 73 53 103 65 115 47z m190 -41 c20 0 25 -5 25 -24 0 -13 -10
-30 -22 -38 -25 -17 -16 -42 13 -33 37 12 20 -27 -33 -76 -51 -47 -58 -62 -19
-37 15 9 26 9 45 0 14 -6 32 -9 39 -6 8 3 19 -2 26 -10 11 -13 9 -17 -15 -28
-33 -13 -74 -47 -74 -60 0 -19 46 -7 55 15 6 13 21 23 38 25 40 5 35 -26 -8
-44 -19 -8 -35 -20 -35 -28 0 -8 -10 -16 -22 -20 -37 -9 -48 -7 -42 9 4 8 2
15 -4 15 -22 0 -103 -53 -134 -89 -19 -20 -51 -47 -71 -60 -20 -12 -37 -27
-37 -32 0 -5 -11 -9 -25 -9 -17 0 -29 9 -41 32 -21 41 -30 138 -15 166 11 20
9 22 -13 22 -42 0 -39 17 9 51 25 18 45 39 45 46 0 15 -6 13 -52 -19 -37 -26
-54 -23 -67 13 -13 39 -8 49 28 49 26 0 57 18 106 63 11 10 40 27 64 38 25 11
59 30 75 43 62 47 89 56 113 40 12 -8 34 -14 48 -14z m90 -361 c8 -12 -21 -47
-50 -60 -29 -13 -55 -30 -105 -69 -89 -70 -119 -90 -133 -90 -7 0 -24 -11 -37
-25 -13 -14 -29 -25 -36 -25 -18 0 -27 17 -17 33 12 22 121 107 136 107 13 0
182 115 192 131 8 12 42 12 50 -2z m103 -78 c6 -40 -8 -72 -36 -84 -44 -19
-150 -89 -202 -132 -65 -54 -133 -95 -158 -95 -20 0 -32 18 -32 49 0 15 112
118 143 131 15 6 106 68 177 119 63 46 103 51 108 12z m48 -123 c4 -6 -5 -21
-22 -35 -16 -12 -46 -38 -67 -55 -22 -18 -52 -41 -68 -51 -16 -11 -29 -25 -29
-33 0 -22 9 -17 56 26 24 22 56 46 72 52 15 7 40 23 55 35 33 27 45 29 53 8
12 -31 -78 -116 -188 -177 -17 -9 -40 -25 -52 -35 -43 -38 -136 -95 -147 -91
-7 2 15 32 49 68 56 58 72 80 57 80 -3 0 -42 -37 -86 -82 -89 -89 -105 -93
-123 -28 -9 31 -7 35 30 67 48 42 141 113 148 113 3 0 33 20 68 45 152 109
177 121 194 93z m-123 -264 c4 -4 -7 -25 -23 -47 -17 -23 -30 -47 -30 -54 0
-7 -11 -20 -25 -29 -31 -21 -75 -95 -75 -129 0 -22 4 -26 22 -23 18 2 24 12
29 41 7 42 27 73 103 159 73 82 98 73 57 -18 -10 -23 -26 -67 -35 -98 -11 -37
-25 -61 -41 -72 -18 -11 -25 -25 -25 -47 0 -35 -55 -127 -77 -127 -17 0 -63
48 -63 66 0 8 -20 44 -46 80 -62 92 -59 105 41 171 44 29 91 66 105 82 35 40
69 58 83 45z"/>
<path d="M735 4000 c-4 -6 5 -10 19 -10 14 0 26 5 26 10 0 6 -9 10 -19 10 -11
0 -23 -4 -26 -10z"/>
<path d="M1183 3823 c-26 -10 -12 -28 22 -29 36 -1 49 19 19 30 -18 7 -23 7
-41 -1z"/>
<path d="M1151 3717 c-19 -11 -29 -23 -23 -25 7 -2 19 3 27 11 8 9 20 17 27
20 7 2 11 7 8 10 -3 3 -21 -4 -39 -16z"/>
<path d="M1050 3640 c0 -5 5 -10 10 -10 6 0 10 5 10 10 0 6 -4 10 -10 10 -5 0
-10 -4 -10 -10z"/>
<path d="M1335 3400 c3 -5 8 -10 11 -10 2 0 4 5 4 10 0 6 -5 10 -11 10 -5 0
-7 -4 -4 -10z"/>
<path d="M1370 3180 c0 -5 4 -10 9 -10 6 0 13 5 16 10 3 6 -1 10 -9 10 -9 0
-16 -4 -16 -10z"/>
<path d="M1330 3151 c0 -5 -16 -19 -34 -31 -19 -11 -38 -29 -41 -40 -3 -10
-18 -21 -33 -25 -28 -6 -102 -68 -102 -85 0 -15 36 -12 49 3 6 8 36 26 67 42
31 16 58 34 61 42 3 7 15 13 28 13 12 0 30 9 40 20 18 19 17 20 -3 20 -29 0
-38 19 -16 35 18 13 18 14 2 15 -10 0 -18 -4 -18 -9z"/>
<path d="M1302 2989 c-18 -12 -31 -23 -29 -26 6 -5 67 30 67 40 0 10 -1 10
-38 -14z"/>
<path d="M1235 2939 c-11 -17 1 -21 15 -4 8 9 8 15 2 15 -6 0 -14 -5 -17 -11z"/>
<path d="M1300 2909 c0 -5 5 -7 10 -4 6 3 10 8 10 11 0 2 -4 4 -10 4 -5 0 -10
-5 -10 -11z"/>
<path d="M1300 2802 c0 -5 -18 -17 -40 -28 -22 -10 -40 -21 -40 -24 1 -3 12
-13 25 -23 23 -17 26 -17 50 -1 27 17 31 29 15 39 -15 9 -12 25 5 25 8 0 15 5
15 10 0 6 -7 10 -15 10 -8 0 -15 -4 -15 -8z"/>
<path d="M1470 2730 c0 -5 5 -10 11 -10 5 0 7 5 4 10 -3 6 -8 10 -11 10 -2 0
-4 -4 -4 -10z"/>
<path d="M1370 2696 c0 -2 6 -9 14 -15 10 -9 16 -8 26 4 11 13 8 15 -14 15
-14 0 -26 -2 -26 -4z"/>
<path d="M1568 2506 c-21 -18 -38 -38 -38 -45 0 -17 36 8 50 34 6 12 24 26 38
32 22 9 23 11 7 12 -11 0 -37 -15 -57 -33z"/>
<path d="M1446 2424 c-21 -21 -20 -24 9 -24 18 0 25 5 25 20 0 24 -13 26 -34
4z"/>
<path d="M1605 2332 c-16 -8 -50 -33 -75 -56 -25 -23 -59 -50 -75 -62 -17 -12
-26 -25 -21 -32 10 -17 41 -15 56 3 7 8 17 15 22 15 5 0 33 20 61 44 29 24 62
49 75 55 27 14 28 23 5 37 -13 7 -26 6 -48 -4z"/>
<path d="M3486 4058 c-9 -12 -16 -27 -16 -32 0 -5 -9 -18 -21 -30 -25 -25 -85
-127 -94 -159 -3 -12 -14 -42 -24 -67 -10 -25 -26 -70 -36 -100 -10 -30 -31
-80 -48 -110 -55 -101 -68 -132 -64 -144 7 -18 -9 -96 -37 -171 -14 -38 -26
-77 -26 -86 0 -9 -7 -22 -15 -29 -8 -7 -15 -22 -15 -34 0 -30 -21 -84 -52
-138 -17 -27 -28 -61 -28 -82 0 -21 -10 -53 -23 -74 -15 -24 -29 -73 -40 -141
-9 -57 -21 -109 -25 -115 -10 -13 -23 -64 -52 -206 -12 -58 -31 -121 -41 -141
-10 -20 -19 -45 -19 -55 0 -11 -7 -32 -15 -47 -8 -15 -17 -44 -21 -64 -4 -19
-24 -78 -45 -130 -22 -52 -39 -103 -39 -114 0 -10 -6 -36 -14 -56 -7 -21 -19
-56 -26 -78 -7 -22 -31 -77 -53 -123 -32 -65 -51 -91 -87 -117 -55 -40 -148
-87 -205 -103 -22 -6 -56 -15 -75 -20 l-35 -10 40 -1 c22 -1 75 6 118 14 43 8
116 15 161 15 45 0 87 5 92 10 19 19 111 24 136 8 27 -18 174 -23 184 -7 3 6
29 10 58 9 112 -4 136 -1 136 16 0 13 -7 15 -37 10 -21 -4 -58 -3 -83 2 -25 4
-69 4 -98 0 -43 -7 -59 -5 -91 11 -44 23 -101 84 -101 109 0 9 -7 26 -15 36
-20 26 -19 47 6 147 30 124 55 201 81 256 13 26 37 91 53 143 33 110 52 136
103 143 20 3 70 11 111 17 67 12 80 11 129 -5 51 -18 58 -18 131 -3 63 14 92
15 152 6 41 -5 107 -8 147 -6 44 3 78 1 87 -6 9 -7 19 -40 24 -82 5 -39 14
-80 20 -92 6 -11 11 -36 11 -55 0 -21 7 -41 20 -52 11 -10 25 -37 31 -59 6
-23 28 -78 50 -124 53 -114 64 -154 50 -180 -15 -28 -14 -42 2 -42 8 0 21 -8
31 -18 15 -17 15 -22 1 -54 -14 -34 -111 -128 -132 -128 -5 0 -25 -8 -44 -17
-26 -13 -58 -16 -138 -15 -101 1 -141 -7 -141 -29 0 -7 64 -9 194 -7 190 3
195 2 218 -19 29 -28 28 -28 81 -3 35 16 66 20 192 21 83 1 160 0 173 -1 13
-1 31 5 41 14 12 11 36 16 75 16 31 0 65 4 75 10 10 5 78 10 152 12 111 2 134
6 134 18 0 11 -18 17 -75 22 -64 5 -77 10 -93 32 -11 16 -28 26 -43 26 -31 0
-63 16 -86 44 -22 27 -22 36 -1 52 10 7 14 16 10 21 -5 4 -15 0 -22 -11 -19
-25 -47 -14 -43 16 3 20 9 23 41 22 43 -1 50 13 10 22 -49 10 -55 14 -49 29 8
21 -17 29 -43 15 -28 -14 -56 1 -77 41 -11 23 -13 34 -5 42 16 16 13 41 -8 58
-19 17 -37 122 -25 152 4 10 1 17 -6 17 -8 0 -10 9 -6 24 5 19 1 25 -19 30
-20 5 -25 13 -25 37 0 22 11 41 45 73 47 46 49 61 7 45 -50 -19 -67 9 -35 57
16 25 15 26 -16 55 -33 30 -33 32 0 80 18 26 18 27 0 43 -11 10 -31 16 -47 14
-28 -3 -29 -1 -28 35 1 27 -2 37 -11 33 -20 -7 -48 18 -44 39 2 11 16 26 31
35 23 13 31 13 49 2 14 -9 25 -10 31 -4 21 21 -3 30 -65 25 l-63 -5 -9 53 c-8
45 -14 55 -32 57 -24 4 -30 25 -13 45 41 48 70 92 70 104 0 23 -31 27 -66 8
-18 -10 -40 -15 -48 -12 -16 6 -56 77 -56 98 0 7 -9 22 -19 33 -11 12 -36 51
-56 88 -39 71 -40 102 -5 111 33 9 24 35 -12 39 -28 3 -33 7 -33 29 0 15 -8
36 -17 46 -23 25 -23 61 -1 85 15 17 15 19 0 36 -15 17 -15 19 -1 34 19 19 11
36 -22 48 -32 12 -30 32 8 106 34 65 32 88 -3 66 -46 -29 -96 40 -110 150 -3
31 -16 70 -28 86 -11 16 -26 52 -31 80 -7 30 -23 63 -40 82 -17 18 -32 42 -36
52 -8 25 -40 23 -58 -4z m34 -58 c0 -11 -7 -20 -15 -20 -15 0 -21 21 -8 33 12
13 23 7 23 -13z m-30 -50 c0 -26 -53 -85 -68 -76 -14 8 -2 38 31 74 25 27 37
28 37 2z m114 -42 c3 -13 6 -32 6 -43 0 -22 -52 -85 -70 -85 -23 0 -60 -32
-51 -44 11 -13 -11 -43 -52 -69 -28 -18 -28 -19 -11 -38 22 -25 76 -25 98 0
16 17 16 19 -3 24 -16 4 -20 12 -18 37 2 26 9 36 35 48 17 9 32 19 32 23 0 11
68 31 80 24 18 -11 10 -35 -15 -45 -29 -11 -33 -30 -6 -30 22 0 33 -13 49 -62
12 -34 10 -40 -18 -93 -25 -46 -28 -60 -19 -71 7 -8 18 -13 25 -10 7 3 16 1
20 -5 5 -9 -11 -29 -86 -108 -14 -14 -34 -40 -45 -57 -33 -52 -72 -107 -98
-138 -31 -38 -61 -30 -55 14 3 18 -1 35 -9 41 -20 17 -16 37 16 84 l29 43 -35
4 c-22 3 -37 -1 -42 -10 -4 -8 -19 -12 -32 -10 -21 3 -24 8 -26 53 -1 42 3 56
34 97 26 35 41 48 60 48 21 0 24 2 13 15 -9 11 -10 18 -1 28 13 16 5 27 -19
27 -10 0 -23 7 -30 15 -18 21 12 88 62 139 21 21 38 42 38 47 0 12 116 129
128 129 5 0 12 -10 16 -22z m146 -554 c0 -11 -68 -96 -119 -149 -31 -33 -75
-82 -95 -110 -44 -57 -54 -65 -73 -58 -18 7 -16 30 5 51 11 11 33 39 50 63 17
24 69 84 115 132 61 63 88 86 100 81 10 -3 17 -8 17 -10z m-445 -97 c13 -10
16 -22 13 -41 -4 -22 -1 -30 17 -38 26 -12 55 -67 55 -107 0 -16 7 -34 16 -41
9 -8 14 -26 13 -44 -2 -17 5 -49 15 -71 10 -22 23 -50 29 -62 8 -19 5 -27 -22
-52 -17 -16 -31 -38 -31 -50 0 -25 9 -26 36 -6 36 28 73 10 58 -29 -3 -8 4
-28 16 -44 39 -52 63 -176 45 -229 -7 -21 -4 -23 29 -23 30 0 38 -4 47 -27 5
-15 9 -47 7 -72 -3 -45 -4 -46 -43 -54 -112 -22 -641 -23 -679 -1 -18 11 -18
14 4 119 12 59 25 115 30 124 21 44 54 133 72 195 10 38 23 77 29 88 6 10 19
47 30 81 20 64 28 83 72 177 14 30 36 84 47 120 12 35 26 73 31 82 12 21 38
23 64 5z m465 -7 c13 -7 18 -21 18 -58 l0 -49 -59 -34 c-32 -19 -59 -38 -59
-42 0 -5 -27 -36 -59 -70 -32 -34 -60 -71 -63 -82 -2 -14 -12 -21 -36 -23 -26
-3 -34 1 -44 22 -9 22 -8 29 5 44 19 19 77 84 122 135 17 18 54 63 84 100 58
70 61 73 91 57z m50 -167 c0 -10 -7 -27 -15 -37 -21 -28 -19 -35 12 -33 22 2
32 -7 61 -56 42 -70 45 -107 10 -145 -13 -15 -32 -40 -42 -55 -15 -25 -101
-127 -127 -152 -6 -5 -26 -25 -44 -44 -28 -27 -39 -32 -61 -27 -26 7 -27 8
-20 67 5 54 3 63 -14 77 -21 17 -21 17 10 44 30 26 53 20 29 -8 -18 -22 -4
-28 25 -9 14 10 43 45 63 79 21 33 45 70 55 80 23 26 23 49 -2 71 -18 16 -21
17 -45 1 -13 -9 -31 -29 -39 -44 -8 -16 -32 -42 -53 -58 -21 -16 -48 -40 -60
-54 -20 -23 -23 -24 -38 -9 -16 16 -14 22 24 87 23 38 51 72 62 75 10 3 19 12
19 21 0 9 4 16 8 16 5 0 39 29 76 65 66 64 106 82 106 48z m-113 -248 c-7 -16
-37 -21 -37 -5 0 10 32 31 39 25 2 -2 1 -11 -2 -20z m233 -74 c-14 -26 -202
-235 -237 -265 -32 -27 -53 -28 -53 -3 0 7 34 48 76 91 41 44 88 100 104 124
38 57 88 96 106 81 9 -7 11 -17 4 -28z m-282 17 c-6 -18 -28 -21 -28 -4 0 9 7
16 16 16 9 0 14 -5 12 -12z m388 -44 c-36 -26 -51 -10 -20 21 13 12 20 13 28
5 8 -8 6 -15 -8 -26z m-59 -61 c2 -5 -30 -40 -72 -77 -41 -38 -78 -78 -81 -90
-3 -13 -25 -39 -49 -60 -24 -20 -50 -48 -57 -63 -15 -31 -27 -37 -48 -23 -13
8 -12 15 9 52 13 24 38 55 56 70 18 15 38 40 44 55 7 15 35 46 63 68 107 86
126 95 135 68z m63 -114 c0 -34 -36 -83 -100 -139 -33 -29 -67 -66 -75 -84 -9
-18 -38 -54 -65 -81 -42 -41 -53 -48 -68 -39 -30 19 -26 59 10 101 19 21 39
50 46 66 6 15 22 31 35 36 13 5 31 21 40 34 9 14 39 48 67 76 38 38 58 51 80
51 24 0 30 -4 30 -21z m68 -143 c6 -28 -26 -79 -65 -106 -19 -13 -42 -38 -51
-56 -9 -18 -33 -43 -52 -56 -19 -13 -41 -36 -48 -51 -7 -15 -30 -43 -50 -63
-48 -46 -79 -44 -97 9 -12 35 -11 40 8 58 11 10 26 19 33 19 6 0 20 12 30 28
9 15 25 32 34 39 9 6 29 30 44 52 16 22 36 43 46 46 10 3 23 19 28 34 17 48
51 72 97 69 30 -2 41 -8 43 -22z m22 -162 c0 -28 -23 -58 -112 -148 -49 -49
-96 -104 -105 -123 -23 -49 -103 -86 -103 -48 0 26 22 57 95 135 39 42 90 101
115 132 41 51 57 62 98 67 6 0 12 -6 12 -15z m28 -126 c4 -22 -101 -172 -144
-204 -19 -15 -34 -31 -34 -38 0 -22 -85 -136 -101 -136 -16 0 -39 45 -39 75 0
7 33 46 74 87 41 41 85 90 98 109 44 61 113 129 128 127 8 -2 16 -11 18 -20z
m47 -152 c22 -45 15 -64 -48 -128 -29 -29 -66 -69 -82 -88 -17 -19 -43 -45
-59 -58 -26 -22 -32 -52 -11 -58 6 -2 24 15 40 37 17 23 59 70 95 105 49 49
71 63 90 62 20 -3 26 -9 28 -37 2 -18 -1 -38 -7 -44 -15 -15 -14 -27 4 -27 8
0 15 -6 15 -14 0 -22 -28 -39 -54 -32 -17 4 -35 -1 -58 -17 -47 -33 -138 -126
-138 -141 0 -7 -9 -21 -21 -32 -20 -18 -21 -18 -35 0 -17 24 -9 63 19 94 21
22 18 26 -20 23 -14 -2 -30 10 -47 32 -14 19 -26 36 -26 39 0 3 18 17 40 32
23 15 38 31 34 37 -3 5 15 28 40 50 30 27 46 49 46 64 0 17 6 25 23 27 14 2
29 17 42 43 31 61 35 65 55 65 12 0 25 -13 35 -34z m102 -343 c3 -7 -9 -25
-26 -41 -22 -19 -31 -36 -29 -53 3 -21 -1 -24 -24 -21 -45 5 -85 -24 -131 -96
-48 -73 -70 -96 -105 -107 -40 -12 -37 20 7 65 23 24 41 47 41 54 1 13 67 86
78 86 4 0 28 21 52 46 72 75 126 101 137 67z m28 -161 c-11 -9 -27 -28 -36
-42 -9 -14 -35 -35 -58 -48 -36 -21 -40 -21 -34 -5 19 52 119 141 137 122 8
-7 5 -15 -9 -27z m-1715 0 c0 -23 -57 -92 -76 -92 -14 0 -21 30 -6 30 4 0 20
18 36 40 32 43 46 50 46 22z m1806 -43 c8 -13 -120 -139 -142 -139 -22 0 -30
31 -11 42 10 5 17 15 17 23 0 16 89 83 112 84 9 1 20 -4 24 -10z m-251 -9 c-3
-5 -10 -10 -16 -10 -5 0 -9 5 -9 10 0 6 7 10 16 10 8 0 12 -4 9 -10z m319 0
c30 -11 34 -38 9 -46 -10 -3 -28 -11 -40 -17 -28 -13 -42 -2 -25 21 7 9 15 25
18 35 7 20 6 20 38 7z m112 -71 c7 -12 -15 -31 -31 -26 -5 2 -11 11 -13 20 -4
19 32 24 44 6z m-401 -19 c8 -14 -13 -40 -32 -40 -7 0 -16 7 -20 16 -10 26 38
47 52 24z m-339 -12 c7 -11 -29 -48 -47 -48 -14 0 -10 22 8 42 19 21 29 23 39
6z"/>
<path d="M3510 3530 c0 -5 6 -10 14 -10 8 0 18 5 21 10 3 6 -3 10 -14 10 -12
0 -21 -4 -21 -10z"/>
<path d="M3487 3416 c-25 -30 -33 -47 -25 -52 6 -4 19 3 30 17 11 13 28 34 39
47 22 26 24 32 6 32 -7 0 -29 -20 -50 -44z"/>
<path d="M3418 3421 c-27 -16 -37 -31 -19 -31 12 0 57 37 51 43 -3 2 -17 -3
-32 -12z"/>
<path d="M3456 3274 l-19 -26 27 17 c14 10 26 21 26 26 0 16 -15 9 -34 -17z"/>
<path d="M3910 3366 c0 -9 5 -16 10 -16 6 0 10 4 10 9 0 6 -4 13 -10 16 -5 3
-10 -1 -10 -9z"/>
<path d="M4022 2988 c-19 -19 -14 -30 8 -18 11 6 20 15 20 20 0 14 -14 12 -28
-2z"/>
</g>
</svg>
